<?xml version="1.0" encoding="iso-8859-1"?>
<!-- Generator: Adobe Illustrator 19.0.0, SVG Export Plug-In . SVG Version: 6.00 Build 0)  -->
<svg version="1.1" id="Layer_1" xmlns="http://www.w3.org/2000/svg" xmlns:xlink="http://www.w3.org/1999/xlink" x="0px" y="0px"
	 viewBox="0 0 297 297" style="enable-background:new 0 0 297 297;" xml:space="preserve">
<g>
	<g>
		<path d="M297,139.163c0-33.519-27.27-60.789-60.79-60.789c-0.893,0-1.787,0.02-2.682,0.06
			c-8.61-26.178-33.172-44.378-61.425-44.378c-30.303,0-56.359,20.938-63.042,50.197c-17.548,8.536-31.254,23.998-37.287,43.22
			c-1.327-0.079-2.655-0.119-3.978-0.119C30.413,127.354,0,157.766,0,195.148c0,37.383,30.413,67.796,67.795,67.796h145.729
			c37.382,0,67.795-30.413,67.795-67.796c0-4.717-0.487-9.322-1.409-13.77C290.937,169.985,297,155.079,297,139.163z
			 M213.524,243.936H67.795c-26.901,0-48.787-21.886-48.787-48.788c0-26.901,21.886-48.787,48.787-48.787
			c3.106,0,6.252,0.306,9.352,0.909c2.493,0.488,5.08-0.048,7.178-1.482c2.098-1.434,3.534-3.648,3.988-6.149
			c4.592-25.291,26.607-43.649,52.346-43.649s47.754,18.357,52.346,43.649c0.454,2.5,1.891,4.715,3.988,6.149
			c2.098,1.434,4.684,1.97,7.178,1.482c3.1-0.602,6.246-0.909,9.352-0.909c26.901,0,48.787,21.886,48.787,48.787
			C262.31,222.05,240.424,243.936,213.524,243.936z M271.949,160.821c-11.8-20.007-33.565-33.467-58.426-33.467
			c-1.323,0-2.651,0.04-3.978,0.119c-9.33-29.731-37.004-50.49-68.886-50.49c-3.054,0-6.069,0.194-9.033,0.565
			c7.699-14.73,23.096-24.484,40.476-24.484c22.093,0,40.99,15.757,44.931,37.466c0.454,2.501,1.891,4.716,3.99,6.15
			c2.098,1.433,4.686,1.969,7.179,1.481c2.651-0.517,5.344-0.779,8.007-0.779c23.039,0,41.782,18.743,41.782,41.781
			C277.991,146.936,275.886,154.361,271.949,160.821z"/>
	</g>
</g>
<g>
</g>
<g>
</g>
<g>
</g>
<g>
</g>
<g>
</g>
<g>
</g>
<g>
</g>
<g>
</g>
<g>
</g>
<g>
</g>
<g>
</g>
<g>
</g>
<g>
</g>
<g>
</g>
<g>
</g>
</svg>
