<svg viewBox="0 0 20 20" fill="none" xmlns="http://www.w3.org/2000/svg">
<rect x="1" y="1" width="18" height="18" rx="9" fill="#F7F6F9" stroke="black" stroke-width="2"/>
<path d="M9 1C9 0.447715 9.44772 0 10 0V0C10.5523 0 11 0.447715 11 1V4H9V1Z" fill="black"/>
<path d="M16 11V9H19C19.5523 9 20 9.44772 20 10V10C20 10.5523 19.5523 11 19 11H16Z" fill="black"/>
<path d="M9 15.95H11V18.95C11 19.5023 10.5523 19.95 10 19.95V19.95C9.44772 19.95 9 19.5023 9 18.95V15.95Z" fill="black"/>
<path d="M4 8.95001V10.95H1C0.447715 10.95 -2.38419e-07 10.5023 -2.38419e-07 9.95001V9.95001C-2.38419e-07 9.39773 0.447715 8.95001 1 8.95001H4Z" fill="black"/>
</svg>
